<svg width="48" height="48" viewBox="0 0 48 48" fill="none" xmlns="http://www.w3.org/2000/svg">
<path d="M8 40V25.9999H22L15.566 32.4399C17.7859 34.71 20.8249 35.9927 24 35.9999C29.0789 35.9924 33.603 32.7884 35.296 27.9999H35.332C35.5611 27.3492 35.7344 26.6801 35.85 25.9999H39.874C38.8661 33.9997 32.063 39.9997 24 40H23.98C19.7375 40.0126 15.6663 38.3274 12.674 35.3199L8 40ZM12.148 21.9999H8.124C9.1315 14.0031 15.93 8.00421 23.99 7.99984H24C28.2433 7.98626 32.3154 9.6716 35.308 12.6799L40 7.99984V21.9999H26L32.444 15.5599C30.2218 13.2872 27.1786 12.0042 24 11.9999C18.9211 12.0074 14.397 15.2115 12.704 19.9999H12.668C12.4371 20.6501 12.2638 21.3194 12.15 21.9999H12.148Z" fill="white"/>
</svg>
